<svg width="23" height="22" viewBox="0 0 23 22" fill="none" xmlns="http://www.w3.org/2000/svg">
<path d="M21.2575 4.52943L17.4763 0.748281C16.9829 0.28474 16.3362 0.0187671 15.6594 0.000955992C14.9825 -0.0168551 14.3228 0.214739 13.8056 0.651683L1.38578 13.0715C0.939723 13.5213 0.661987 14.1109 0.599191 14.7413L0.00579999 20.4958C-0.0127898 20.6979 0.0134373 20.9017 0.0826113 21.0925C0.151785 21.2833 0.262203 21.4565 0.405994 21.5998C0.53494 21.7277 0.687864 21.8289 0.855997 21.8975C1.02413 21.9662 1.20417 22.001 1.38578 22H1.50998L7.2645 21.4756C7.89487 21.4128 8.48445 21.1351 8.93427 20.689L21.3541 8.26917C21.8361 7.75992 22.0967 7.08033 22.0786 6.37934C22.0604 5.67835 21.7652 5.01312 21.2575 4.52943ZM7.0161 18.7156L2.87616 19.102L3.24875 14.9621L11.0456 7.26179L14.7716 10.9877L7.0161 18.7156ZM16.5656 9.13856L12.8672 5.44021L15.5582 2.68025L19.3255 6.4476L16.5656 9.13856Z" fill="#5A657E"/>
</svg>
